<svg width="23" height="23" viewBox="0 0 23 23" fill="none" xmlns="http://www.w3.org/2000/svg">
<g clip-path="url(#clip0_184_153)">
<path d="M5.10134 15.0582C7.2318 17.6049 9.7964 19.61 12.7235 21.0288C13.838 21.557 15.3284 22.1836 16.9889 22.291C17.0919 22.2955 17.1904 22.3 17.2933 22.3C18.4078 22.3 19.3029 21.915 20.0325 21.1228C20.0369 21.1184 20.0459 21.1094 20.0504 21.1004C20.31 20.7871 20.6054 20.5052 20.9142 20.2053C21.1245 20.0039 21.3394 19.7935 21.5453 19.5787C22.4986 18.5851 22.4986 17.3229 21.5363 16.3606L18.8464 13.6707C18.3899 13.1963 17.8438 12.9456 17.2709 12.9456C16.698 12.9456 16.1475 13.1963 15.6775 13.6662L14.0752 15.2685C13.9275 15.1835 13.7754 15.1074 13.6321 15.0358C13.4531 14.9463 13.2875 14.8612 13.1398 14.7673C11.6807 13.8408 10.3559 12.6323 9.08924 11.0792C8.4492 10.2691 8.01953 9.5888 7.71965 8.89506C8.14037 8.51462 8.53424 8.11628 8.91468 7.72689C9.04895 7.58814 9.1877 7.44939 9.32645 7.31064C9.80983 6.82726 10.0694 6.26779 10.0694 5.69937C10.0694 5.13095 9.81431 4.57148 9.32645 4.0881L7.99267 2.75432C7.83602 2.59767 7.68832 2.4455 7.53615 2.28884C7.24075 1.98449 6.93192 1.67119 6.62757 1.38922C6.16657 0.937166 5.625 0.699951 5.0521 0.699951C4.48368 0.699951 3.93764 0.937166 3.45873 1.39369L1.7848 3.06763C1.1761 3.67633 0.831464 4.41483 0.759852 5.2697C0.674812 6.3394 0.871746 7.47625 1.38198 8.8503C2.16524 10.9763 3.34684 12.9501 5.10134 15.0582ZM1.85194 5.36369C1.90565 4.76841 2.13391 4.2716 2.56358 3.84193L4.22856 2.17695C4.48816 1.92631 4.77461 1.79651 5.0521 1.79651C5.32512 1.79651 5.60262 1.92631 5.85774 2.1859C6.15761 2.4634 6.43959 2.75432 6.74394 3.06315C6.89611 3.2198 7.05277 3.37645 7.20942 3.53758L8.54319 4.87136C8.82069 5.14885 8.96391 5.43083 8.96391 5.70832C8.96391 5.98582 8.82069 6.26779 8.54319 6.54529C8.40444 6.68404 8.2657 6.82726 8.12695 6.96601C7.7107 7.38673 7.32131 7.78507 6.89164 8.16551C6.88269 8.17446 6.87821 8.17894 6.86926 8.18789C6.49777 8.55938 6.55596 8.91296 6.64547 9.18151C6.64995 9.19494 6.65442 9.20389 6.6589 9.21732C7.00353 10.0453 7.48244 10.8331 8.22989 11.773C9.57262 13.429 10.987 14.7135 12.5445 15.7027C12.737 15.828 12.9429 15.9265 13.1353 16.0249C13.3143 16.1145 13.48 16.1995 13.6277 16.2935C13.6456 16.3024 13.659 16.3114 13.6769 16.3203C13.8246 16.3964 13.9678 16.4322 14.111 16.4322C14.4691 16.4322 14.7018 16.204 14.7779 16.1279L16.4519 14.4539C16.7114 14.1944 16.9934 14.0556 17.2709 14.0556C17.6111 14.0556 17.8886 14.266 18.0631 14.4539L20.762 17.1484C21.2991 17.6854 21.2946 18.2673 20.7486 18.8357C20.5606 19.0371 20.3637 19.2296 20.1533 19.431C19.84 19.7353 19.5133 20.0486 19.2179 20.4022C18.7032 20.9572 18.09 21.2168 17.2978 21.2168C17.2217 21.2168 17.1411 21.2123 17.065 21.2079C15.597 21.1139 14.2319 20.541 13.2069 20.0531C10.423 18.7059 7.97925 16.7948 5.95173 14.3689C4.28227 12.3593 3.15886 10.4884 2.41588 8.48329C1.95488 7.25246 1.78032 6.26332 1.85194 5.36369Z" fill="white"/>
</g>
<defs>
<clipPath id="clip0_184_153">
<rect width="21.6" height="21.6" fill="white" transform="translate(0.699951 0.699951)"/>
</clipPath>
</defs>
</svg>
